<svg id="Capa_1" enable-background="new 0 0 512 512" height="512" viewBox="0 0 512 512" width="512" xmlns="http://www.w3.org/2000/svg"><g><g><path d="m460.209 220.066h-33.802v-20.867c0-76.577-51.533-144.167-125.318-164.365-5.328-1.454-10.827 1.679-12.286 7.005-1.458 5.327 1.679 10.827 7.005 12.286 65.119 17.825 110.6 77.482 110.6 145.074l.002 163.988c0 5.522 4.478 10 10 10h43.8c28.558 0 51.791-23.233 51.791-51.792v-49.537c-.001-28.559-23.234-51.792-51.792-51.792zm-33.8 20h22.796v113.121h-22.796zm65.591 81.329c0 14.406-9.634 26.597-22.795 30.488v-110.513c13.161 3.891 22.795 16.082 22.795 30.488z"/><path d="m213.946 54.754c5.303-1.541 8.353-7.09 6.812-12.394-1.541-5.303-7.092-8.352-12.394-6.812-34.712 10.088-65.958 31.558-87.981 60.456-22.761 29.865-34.792 65.549-34.792 103.193v20.867h-33.8c-28.558.002-51.791 23.235-51.791 51.794v49.537c0 28.559 23.233 51.792 51.791 51.792h43.8c5.522 0 10-4.478 10-10v-163.989c0-33.227 10.615-64.719 30.699-91.07 19.447-25.518 47.025-44.473 77.656-53.374zm-193.946 266.641v-49.537c0-14.037 9.147-25.969 21.791-30.171v109.88c-12.644-4.203-21.791-16.136-21.791-30.172zm65.591 31.792h-23.8v-113.121h23.8z"/><path d="m372.642 168.682h-201.714c-24.757 0-41.637 20.928-41.332 44.573.015 60.78.048 203.76.025 218.682 0 .449-.026.898-.026 1.347 0 27.102 22.048 49.149 49.161 49.149l193.89-.232c5.519-.007 9.988-4.481 9.988-10l.008-293.519c0-5.523-4.478-10-10-10zm-201.714 20h191.714v195.468l-183.886-.026c-10.416 0-20.742 3.357-29.127 9.543-.002-50.553-.022-136.724-.033-180.418-.334-12.719 7.446-24.567 21.332-24.567zm7.816 273.751c-16.073 0-29.149-13.076-29.149-29.149 0-15.841 13.251-29.157 29.148-29.157l183.891.024v19.129h-176.517c-5.522 0-10 4.478-10 10s4.478 10 10 10h176.517v18.933z"/><path d="m245.88 43.371c2.065 5.041 8.039 7.493 13.06 5.41 5.032-2.088 7.497-8.022 5.41-13.061-2.083-5.03-8.03-7.497-13.06-5.41-5.026 2.086-7.504 8.031-5.41 13.061z"/><path d="m205.155 301.375h109.33c5.522 0 10-4.478 10-10v-54.69c0-5.522-4.478-10-10-10h-109.33c-5.522 0-10 4.478-10 10v54.69c0 5.523 4.478 10 10 10zm10-54.69h89.33v34.69h-89.33z"/></g></g></svg>